<?xml version="1.0" encoding="UTF-8" standalone="no"?>
<!-- Created with Inkscape (http://www.inkscape.org/) -->

<svg
   xmlns:dc="http://purl.org/dc/elements/1.1/"
   xmlns:cc="http://creativecommons.org/ns#"
   xmlns:rdf="http://www.w3.org/1999/02/22-rdf-syntax-ns#"
   xmlns:svg="http://www.w3.org/2000/svg"
   xmlns="http://www.w3.org/2000/svg"
   xmlns:sodipodi="http://sodipodi.sourceforge.net/DTD/sodipodi-0.dtd"
   xmlns:inkscape="http://www.inkscape.org/namespaces/inkscape"
   width="512"
   height="512"
   viewBox="0 0 135.46666 135.46667"
   version="1.1"
   id="svg8"
   inkscape:version="0.92.4 (5da689c313, 2019-01-14)"
   sodipodi:docname="Logo.svg">
  <defs
     id="defs2" />
  <sodipodi:namedview
     id="base"
     pagecolor="#ffffff"
     bordercolor="#666666"
     borderopacity="1.0"
     inkscape:pageopacity="0.0"
     inkscape:pageshadow="2"
     inkscape:zoom="0.64"
     inkscape:cx="-140.16535"
     inkscape:cy="202.16051"
     inkscape:document-units="mm"
     inkscape:current-layer="layer1"
     showgrid="false"
     inkscape:window-width="1600"
     inkscape:window-height="1201"
     inkscape:window-x="2391"
     inkscape:window-y="59"
     inkscape:window-maximized="1"
     units="px" />
  <metadata
     id="metadata5">
    <rdf:RDF>
      <cc:Work
         rdf:about="">
        <dc:format>image/svg+xml</dc:format>
        <dc:type
           rdf:resource="http://purl.org/dc/dcmitype/StillImage" />
        <dc:title />
      </cc:Work>
    </rdf:RDF>
  </metadata>
  <g
     inkscape:label="Layer 1"
     inkscape:groupmode="layer"
     id="layer1"
     transform="translate(0,-161.53332)">
    <path
       style="fill:#000000;stroke-width:0.26458332"
       d=""
       id="path904"
       inkscape:connector-curvature="0" />
    <path
       style="opacity:1;fill:none;fill-opacity:0.91964285;fill-rule:nonzero;stroke:#000000;stroke-width:2.82842708;stroke-linecap:round;stroke-linejoin:round;stroke-miterlimit:4;stroke-dasharray:none;stroke-dashoffset:0;stroke-opacity:1;paint-order:stroke fill markers"
       d=""
       id="path1579"
       inkscape:connector-curvature="0"
       transform="scale(0.26458333)" />
    <path
       style="opacity:1;fill:none;fill-opacity:0.91964285;fill-rule:nonzero;stroke:#000000;stroke-width:2.82842708;stroke-linecap:round;stroke-linejoin:round;stroke-miterlimit:4;stroke-dasharray:none;stroke-dashoffset:0;stroke-opacity:1;paint-order:stroke fill markers"
       d=""
       id="path1581"
       inkscape:connector-curvature="0"
       transform="scale(0.26458333)" />
    <path
       style="opacity:1;fill:none;fill-opacity:0.91964285;fill-rule:nonzero;stroke:#000000;stroke-width:2.82842708;stroke-linecap:round;stroke-linejoin:round;stroke-miterlimit:4;stroke-dasharray:none;stroke-dashoffset:0;stroke-opacity:1;paint-order:stroke fill markers"
       d=""
       id="path1583"
       inkscape:connector-curvature="0"
       transform="scale(0.26458333)" />
    <path
       style="opacity:1;fill:none;fill-opacity:0.91964285;fill-rule:nonzero;stroke:#000000;stroke-width:2.82842708;stroke-linecap:round;stroke-linejoin:round;stroke-miterlimit:4;stroke-dasharray:none;stroke-dashoffset:0;stroke-opacity:1;paint-order:stroke fill markers"
       d=""
       id="path1585"
       inkscape:connector-curvature="0"
       transform="scale(0.26458333)" />
    <path
       style="opacity:1;fill:none;fill-opacity:0.91964285;fill-rule:nonzero;stroke:#000000;stroke-width:2;stroke-linecap:round;stroke-linejoin:round;stroke-miterlimit:4;stroke-dasharray:none;stroke-dashoffset:0;stroke-opacity:1;paint-order:stroke fill markers"
       d=""
       id="path1595"
       inkscape:connector-curvature="0"
       transform="scale(0.26458333)" />
    <path
       style="opacity:1;fill:none;fill-opacity:0.91964285;fill-rule:nonzero;stroke:#000000;stroke-width:2;stroke-linecap:round;stroke-linejoin:round;stroke-miterlimit:4;stroke-dasharray:none;stroke-dashoffset:0;stroke-opacity:1;paint-order:stroke fill markers"
       d=""
       id="path1599"
       inkscape:connector-curvature="0"
       transform="scale(0.26458333)" />
    <path
       style="opacity:1;fill:none;fill-opacity:0.91964285;fill-rule:nonzero;stroke:#000000;stroke-width:2;stroke-linecap:round;stroke-linejoin:round;stroke-miterlimit:4;stroke-dasharray:none;stroke-dashoffset:0;stroke-opacity:1;paint-order:stroke fill markers"
       d=""
       id="path1601"
       inkscape:connector-curvature="0"
       transform="scale(0.26458333)" />
    <path
       inkscape:connector-curvature="0"
       style="opacity:1;fill:#f765a3;fill-opacity:1;fill-rule:nonzero;stroke:#f765a3;stroke-width:0.52916414;stroke-linecap:round;stroke-linejoin:round;stroke-miterlimit:4;stroke-dasharray:none;stroke-dashoffset:0;stroke-opacity:1;paint-order:stroke fill markers"
       d="m 59.276477,161.79752 a 31.269861,70.152622 0 0 0 -20.0639,38.931 70.152892,31.269739 0 0 0 -38.91079979,19.9528 68.060274,68.060017 0 0 1 3.02616999,-13.1548 68.060274,68.060017 0 0 1 0.12299,-0.3353 68.060274,68.060017 0 0 1 2.32079,-5.8731 68.060274,68.060017 0 0 1 0.37827,-0.7803 68.060274,68.060017 0 0 1 2.66392,-5.1604 68.060274,68.060017 0 0 1 0.71417,-1.1632 68.060274,68.060017 0 0 1 2.8918098,-4.4468 68.060274,68.060017 0 0 1 1.14309,-1.5012 68.060274,68.060017 0 0 1 2.98689,-3.7212 68.060274,68.060017 0 0 1 1.67122,-1.7896 68.060274,68.060017 0 0 1 2.94969,-3.0029 68.060274,68.060017 0 0 1 2.25361,-1.9766 68.060274,68.060017 0 0 1 2.8143,-2.3435 68.060274,68.060017 0 0 1 2.8913,-2.063 68.060274,68.060017 0 0 1 2.57451,-1.7399 68.060274,68.060017 0 0 1 3.56206,-2.0386 68.060274,68.060017 0 0 1 2.24689,-1.2113 68.060274,68.060017 0 0 1 4.25401,-1.8986 68.060274,68.060017 0 0 1 1.85002,-0.77 68.060274,68.060017 0 0 1 4.92993,-1.633 68.060274,68.060017 0 0 1 1.40921,-0.4273 68.060274,68.060017 0 0 1 5.56659,-1.2439 68.060274,68.060017 0 0 1 1.09192,-0.215 68.060274,68.060017 0 0 1 2.66134,-0.3943 z m 17.04133,0.037 a 68.060274,68.060017 0 0 1 13.1501,3.0252 68.060274,68.060017 0 0 1 0.35192,0.1287 68.060274,68.060017 0 0 1 5.85752,2.3151 68.060274,68.060017 0 0 1 0.79375,0.3844 68.060274,68.060017 0 0 1 5.145433,2.6562 68.060274,68.060017 0 0 1 1.18494,0.7271 68.060274,68.060017 0 0 1 4.42298,2.8758 68.060274,68.060017 0 0 1 1.52807,1.1643 68.060274,68.060017 0 0 1 3.69745,2.9682 68.060274,68.060017 0 0 1 1.80299,1.6826 68.060274,68.060017 0 0 1 2.99052,2.9378 68.060274,68.060017 0 0 1 1.98437,2.2629 68.060274,68.060017 0 0 1 2.3394,2.8097 68.060274,68.060017 0 0 1 2.06602,2.8954 68.060274,68.060017 0 0 1 1.73323,2.5647 68.060274,68.060017 0 0 1 2.04587,3.5735 68.060274,68.060017 0 0 1 1.20819,2.2417 68.060274,68.060017 0 0 1 1.89911,4.2555 68.060274,68.060017 0 0 1 0.76791,1.8433 68.060274,68.060017 0 0 1 1.63763,4.946 68.060274,68.060017 0 0 1 0.42219,1.3932 68.060274,68.060017 0 0 1 1.24696,5.5779 68.060274,68.060017 0 0 1 0.21239,1.0801 68.060274,68.060017 0 0 1 0.39532,2.666 70.152892,31.269739 0 0 0 -38.930953,-20.0639 31.269861,70.152622 0 0 0 -19.95331,-38.9114 z m -8.57725,25.3313 a 60.125607,19.753635 69.270292 0 1 11.46648,19.0304 60.125607,19.753635 69.270292 0 1 3.65301,7.9292 60.125613,19.753635 20.729708 0 1 7.94318,3.6675 60.125613,19.753635 20.729708 0 1 19.030883,11.4809 19.753635,60.125613 69.270292 0 1 -19.030883,11.4665 19.753635,60.125613 69.270292 0 1 -7.92871,3.653 19.753635,60.125607 20.729708 0 1 -3.66748,7.9432 19.753635,60.125607 20.729708 0 1 -11.48095,19.0309 60.125607,19.753635 69.270292 0 1 -11.46648,-19.0309 60.125607,19.753635 69.270292 0 1 -3.65301,-7.9287 60.125613,19.753635 20.729708 0 1 -7.9437,-3.667 60.125613,19.753635 20.729708 0 1 -19.03037,-11.4814 19.753635,60.125613 69.270292 0 1 19.03037,-11.4665 19.753635,60.125613 69.270292 0 1 7.92923,-3.653 19.753635,60.125607 20.729708 0 1 3.66696,-7.9437 19.753635,60.125607 20.729708 0 1 11.48147,-19.0304 z m -67.47598979,50.5561 a 70.152892,31.269739 0 0 0 38.93095979,20.0649 31.269861,70.152622 0 0 0 19.95331,38.9113 68.060274,68.060017 0 0 1 -13.15217,-3.0256 68.060274,68.060017 0 0 1 -0.34572,-0.1266 68.060274,68.060017 0 0 1 -5.86424,-2.3177 68.060274,68.060017 0 0 1 -0.78445,-0.3803 68.060274,68.060017 0 0 1 -5.15576,-2.6614 68.060274,68.060017 0 0 1 -1.17409,-0.7209 68.060274,68.060017 0 0 1 -4.43435,-2.883 68.060274,68.060017 0 0 1 -1.51464,-1.1539 68.060274,68.060017 0 0 1 -3.70933,-2.9776 68.060274,68.060017 0 0 1 -1.79059,-1.6712 68.060274,68.060017 0 0 1 -3.00602,-2.9533 68.060274,68.060017 0 0 1 -1.97714,-2.2552 68.060274,68.060017 0 0 1 -2.33732,-2.8066 68.060274,68.060017 0 0 1 -2.07171,-2.9026 68.060274,68.060017 0 0 1 -1.73375,-2.5652 68.060274,68.060017 0 0 1 -2.0406998,-3.5662 68.060274,68.060017 0 0 1 -1.21026,-2.2454 68.060274,68.060017 0 0 1 -1.89601,-4.2473 68.060274,68.060017 0 0 1 -0.77308,-1.8582 68.060274,68.060017 0 0 1 -1.63091,-4.9217 68.060274,68.060017 0 0 1 -0.42943,-1.4165 68.060274,68.060017 0 0 1 -1.24280999,-5.5645 68.060274,68.060017 0 0 1 -0.2155,-1.0924 68.060274,68.060017 0 0 1 -0.39429,-2.6629 z m 134.90081279,0.1292 a 68.060274,68.060017 0 0 1 -3.02359,13.1454 68.060274,68.060017 0 0 1 -0.13539,0.3706 68.060274,68.060017 0 0 1 -2.30942,5.8415 68.060274,68.060017 0 0 1 -0.38602,0.7968 68.060274,68.060017 0 0 1 -2.65565,5.1449 68.060274,68.060017 0 0 1 -0.72709,1.1844 68.060274,68.060017 0 0 1 -2.87373,4.4199 68.060274,68.060017 0 0 1 -1.16892,1.5348 68.060274,68.060017 0 0 1 -2.96622,3.6944 68.060274,68.060017 0 0 1 -1.67587,1.7952 68.060274,68.060017 0 0 1 -2.94659,3.0003 68.060274,68.060017 0 0 1 -2.26291,1.9839 68.060274,68.060017 0 0 1 -2.80242,2.3337 68.060274,68.060017 0 0 1 -2.90731,2.0743 68.060274,68.060017 0 0 1 -2.55488,1.727 68.060274,68.060017 0 0 1 -3.58893,2.0547 68.060274,68.060017 0 0 1 -2.221063,1.1968 68.060274,68.060017 0 0 1 -4.27519,1.9084 68.060274,68.060017 0 0 1 -1.82934,0.7617 68.060274,68.060017 0 0 1 -4.94233,1.6366 68.060274,68.060017 0 0 1 -1.39992,0.4243 68.060274,68.060017 0 0 1 -5.57588,1.2464 68.060274,68.060017 0 0 1 -1.08159,0.2124 68.060274,68.060017 0 0 1 -2.66702,0.3959 31.269861,70.152622 0 0 0 20.06595,-38.9315 70.152892,31.269739 0 0 0 38.911323,-19.9528 z"
       id="path933-2-2-2-7-8-4-6-7-2" />
  </g>
</svg>
